<svg version="1.1" id="Capa_1" xmlns="http://www.w3.org/2000/svg" x="0" y="0" viewBox="0 0 512 512" xml:space="preserve"><style>.st1{fill:#ffdc8d}.st2{fill:#f2ce86}.st3{fill:#5c5e70}.st4{fill:#fff}</style><circle cx="256" cy="256" r="256" fill="#006fb4"/><path class="st1" d="M456.2 415.5c-20.5 25.7-45.9 47.4-74.8 63.7-18.7 10.6-38.9 18.8-60.2 24.4h-10.7c-21.3 0-42.3-5.1-61.3-15l-111.7-58.3-24.5-13.5L86.2 402l135.3-6.3c15.3 0 11.5-37.5 11.5-52.8L306.2 216l90.9 90.9c12.4 12.4 22.1 27.1 28.7 43s10.1 33.1 10.1 50.7l20.3 14.9z"/><path class="st2" d="M381.5 479.2c-18.7 10.6-38.9 18.8-60.2 24.4h-10.7c-21.3 0-42.3-5.1-61.3-15l-111.7-58.3-24.6-13.5 156.7 11.8s30.3 50.6 111.8 50.6zM86.7 165.1H71.4c-.8 0-1.5-.1-2.3-.1-8 0-16 3.1-22.2 9.2-12.2 12.2-12.2 32.1 0 44.3l17.2 17.3c-6.7.8-13.3 3.8-18.5 8.9-12.2 12.2-12.2 32.1 0 44.3l9.1 9.1c2.6 2.6 5.6 4.7 8.8 6.2.2-.1.4-.3.6-.4v.7l-.6-.3c-1.5 1-3 2.2-4.3 3.6-12.2 12.2-12.2 32.1 0 44.3l9.1 9.1c1 1 2 1.9 3.1 2.7v-24h15.3V165.1z"/><path class="st3" d="M278.5 0H99.1C83.8 0 71.4 12.4 71.4 27.7V401c0 15.3 12.4 27.7 27.7 27.7h170.6c-14.8-18.4-18.9-42.6-12.2-64.1l37.6-106.1 11.1 11.1V27.7c0-15.3-12.4-27.7-27.7-27.7"/><path class="st4" d="M214 226.4c-6.8 6.8-10.2 15.6-10.2 24.5s3.4 17.8 10.2 24.5l39.9 39.9c10.5 10.5 13.6 26.5 7.2 39.9-1.4 3-2.7 6.1-3.6 9.3h-175V56.6h212.6v201.8l-32-32c-13.5-13.6-35.5-13.6-49.1 0z"/><path d="M210.7 397.4c0 8.1-4.4 15.2-11 19 1.8-3.2 2.9-6.9 2.9-10.9 0-12.1-9.8-21.9-21.9-21.9-4 0-7.7 1.1-10.9 2.9 3.8-6.6 10.9-11 19-11 12.1 0 21.9 9.8 21.9 21.9z" fill="#494b5b"/><path class="st2" d="M347.5 294.2l-27.4-27.4v-36.7l-13.9-13.9v53.3l33.1 33.1c3.7 3.7 10 1.1 10-4.1-.1-1.7-.7-3.2-1.8-4.3z"/><path class="st4" d="M260.8 273.4v-13.5h13.5v13.5h-13.5m-51.1-23.9V236h13.5v27h-13.5v-13.5m37.5 0V236h13.5v13.5h-13.5m-5.3-33.1v3h-13.5v-1.6c-5.2 1.6-10.2 4.5-14.3 8.6-1.7 1.7-3.3 3.6-4.6 5.6v3.7h-2.1c-2.3 4.8-3.5 10-3.5 15.2 0 8.9 3.4 17.8 10.2 24.5l39.9 39.9c10.5 10.5 13.6 26.5 7.2 39.9-1.4 3-2.7 6.1-3.6 9.3H227h30.6c-6.7 21.6-2.7 45.7 12.2 64.1h5.9c16.8 0 30.5-13.6 30.6-30.3V269.4l-11.1-11.1-20.8-20.8v11.9h-13.5v-13.5h11.9l-9.6-9.6c-6-5.9-13.6-9.2-21.3-9.9m53.2-159.8H179.9h115.2"/><path class="st3" d="M128.3 127.4h13.5v13.5h-13.5zM128.3 234.8h13.5v13.5h-13.5zM210.7 102.4V166h63.7v-63.7l-63.7.1zm48 48h-32.4V118h32.4v32.4z"/><path class="st3" d="M235.7 127.4h13.5v13.5h-13.5zM195.6 208.2v-13.5H182v27h13.6v13.9h13.5v-27h-13.5zM247.2 177.4V191h27.1v-13.6h-13.5zM182.4 235.9h13.5v13.5h-13.5zM168.5 181.1H182v13.5h-13.5zM260.5 206.7H274v13.5h-13.5zM228.4 178.8h-27.1v13.5h13.5v13.5h13.6v13.6h13.5v-27.1h-13.5zM134.5 181.1v13.5H148V166h18.9v-63.7h-63.7V166h31.2l.1 15.1zM118.9 118h32.4v32.4h-32.4V118z"/><path class="st3" d="M116.8 181.1h-13.5v92.3H167v-63.7h-50.1l-.1-28.6zm2.1 44.3h32.4v32.4h-32.4v-32.4zM195.6 154.5v-27.1H182v40.7h13.6z"/><path class="st1" d="M295.1 258.4l-32-32c-13.5-13.5-35.5-13.5-49 0-6.8 6.8-10.2 15.6-10.2 24.5s3.4 17.8 10.2 24.5l39.9 39.9c10.5 10.5 13.6 26.5 7.2 39.9-1.4 3-2.7 6.1-3.6 9.3-6.7 21.6-2.7 45.7 12.2 64.1l13.5 14.7c15.3 0 40.8-19.2 40.8-34.5l-17.7-139.4-11.3-11z"/><path d="M255.3 236.8c-8.2-8.2-21.4-8.2-29.6 0s-8.2 21.4 0 29.6 15.2 2 23.4-6.2c8.2-8.1 14.4-15.2 6.2-23.4z" fill="#f9eed7"/><circle cx="247.3" cy="244.1" r="4.9" fill="#fcf8f2"/><g><path class="st3" d="M92.4 68.1c1.5-.3 3.5-.5 5.5-.5 3.1 0 5 .6 6.4 1.8 1.1 1 1.7 2.5 1.7 4.2 0 2.9-1.8 4.9-4.2 5.7v.1c1.7.6 2.7 2.2 3.3 4.5.7 3.1 1.3 5.2 1.7 6.1h-3c-.4-.6-.9-2.5-1.5-5.3-.7-3.1-1.8-4.2-4.5-4.3h-2.7V90h-2.9V68.1zm2.9 10.1h2.9c3.1 0 5-1.7 5-4.2 0-2.9-2.1-4.1-5.1-4.2-1.4 0-2.4.1-2.8.3v8.1zM124.6 81.9c0 5.9-4.1 8.5-8 8.5-4.3 0-7.7-3.2-7.7-8.2 0-5.3 3.5-8.5 7.9-8.5 4.7 0 7.8 3.3 7.8 8.2zM112 82c0 3.5 2 6.1 4.9 6.1 2.8 0 4.9-2.6 4.9-6.2 0-2.7-1.4-6.1-4.8-6.1s-5 3.2-5 6.2zM139.7 89.4c-.8.4-2.4.9-4.6.9-4.8 0-8-3.3-8-8.2 0-4.9 3.4-8.5 8.6-8.5 1.7 0 3.2.4 4 .8l-.7 2.2c-.7-.4-1.8-.8-3.4-.8-3.7 0-5.6 2.7-5.6 6 0 3.7 2.4 6 5.5 6 1.7 0 2.7-.4 3.6-.8l.6 2.4zM146 81.4c.5-.6 1-1.3 1.5-1.8l4.7-5.5h3.5l-6.2 6.6 7 9.4H153l-5.5-7.7L146 84v6h-2.9V66.6h2.9v14.8zM160.2 82.5c.1 3.9 2.6 5.5 5.5 5.5 2.1 0 3.3-.4 4.4-.8l.5 2.1c-1 .5-2.8 1-5.3 1-4.9 0-7.9-3.2-7.9-8.1 0-4.8 2.8-8.6 7.5-8.6 5.2 0 6.6 4.6 6.6 7.5 0 .6-.1 1.1-.1 1.4h-11.2zm8.5-2c0-1.8-.8-4.7-4-4.7-2.9 0-4.2 2.7-4.5 4.7h8.5zM178.6 69.4V74h4.2v2.2h-4.2v8.6c0 2 .6 3.1 2.2 3.1.8 0 1.3-.1 1.7-.2l.1 2.2c-.6.2-1.5.4-2.6.4-1.4 0-2.4-.4-3.1-1.2-.8-.9-1.1-2.3-1.1-4.2v-8.7h-2.5V74h2.5v-3.8l2.8-.8zM186.1 68.1c1.3-.3 3.2-.5 5.2-.5 2.9 0 4.7.5 6.1 1.6 1.2.9 1.8 2.2 1.8 3.9 0 2.1-1.4 4-3.8 4.9v.1c2.1.5 4.6 2.3 4.6 5.6 0 1.9-.8 3.4-1.9 4.5-1.6 1.4-4.1 2.1-7.7 2.1-2 0-3.5-.1-4.5-.3V68.1zm2.9 9.1h2.6c3 0 4.8-1.6 4.8-3.7 0-2.6-2-3.6-4.9-3.6-1.3 0-2.1.1-2.5.2v7.1zm0 10.6c.6.1 1.4.1 2.4.1 3 0 5.7-1.1 5.7-4.3 0-3-2.6-4.3-5.7-4.3H189v8.5zM218.5 81.9c0 5.9-4.1 8.5-8 8.5-4.3 0-7.7-3.2-7.7-8.2 0-5.3 3.5-8.5 7.9-8.5 4.7 0 7.8 3.3 7.8 8.2zm-12.7.1c0 3.5 2 6.1 4.9 6.1 2.8 0 4.9-2.6 4.9-6.2 0-2.7-1.4-6.1-4.8-6.1s-5 3.2-5 6.2zM236.6 81.9c0 5.9-4.1 8.5-8 8.5-4.3 0-7.7-3.2-7.7-8.2 0-5.3 3.5-8.5 7.9-8.5 4.7 0 7.8 3.3 7.8 8.2zm-12.7.1c0 3.5 2 6.1 4.9 6.1 2.8 0 4.9-2.6 4.9-6.2 0-2.7-1.4-6.1-4.8-6.1s-5 3.2-5 6.2zM239.9 87c.9.6 2.4 1.2 3.8 1.2 2.1 0 3.1-1.1 3.1-2.4 0-1.4-.8-2.1-3-2.9-2.9-1-4.2-2.6-4.2-4.5 0-2.6 2.1-4.7 5.5-4.7 1.6 0 3 .5 3.9 1l-.7 2.1c-.6-.4-1.8-.9-3.3-.9-1.7 0-2.7 1-2.7 2.2 0 1.3 1 1.9 3 2.7 2.8 1.1 4.2 2.4 4.2 4.8 0 2.8-2.2 4.8-6 4.8-1.7 0-3.4-.4-4.5-1.1l.9-2.3zM256.8 69.4V74h4.2v2.2h-4.2v8.6c0 2 .6 3.1 2.2 3.1.8 0 1.3-.1 1.7-.2l.1 2.2c-.6.2-1.5.4-2.6.4-1.4 0-2.4-.4-3.1-1.2-.8-.9-1.1-2.3-1.1-4.2v-8.7h-2.5V74h2.5v-3.8l2.8-.8zM265.7 82.5c.1 3.9 2.6 5.5 5.5 5.5 2.1 0 3.3-.4 4.4-.8l.5 2.1c-1 .5-2.8 1-5.3 1-4.9 0-7.9-3.2-7.9-8.1 0-4.8 2.8-8.6 7.5-8.6 5.2 0 6.6 4.6 6.6 7.5 0 .6-.1 1.1-.1 1.4h-11.2zm8.5-2c0-1.8-.8-4.7-4-4.7-2.9 0-4.2 2.7-4.5 4.7h8.5zM280.6 79c0-1.9 0-3.5-.1-5h2.5l.1 3.1h.1c.7-2.1 2.5-3.5 4.4-3.5.3 0 .6 0 .8.1v2.7c-.3-.1-.6-.1-1-.1-2 0-3.5 1.6-3.9 3.7-.1.4-.1.9-.1 1.4V90h-2.9V79z"/></g></svg>
